<svg xmlns:xlink="http://www.w3.org/1999/xlink" xmlns="http://www.w3.org/2000/svg" class="svg-icon" viewBox="0 0 63 34" width="63" height="34"><defs><g id="svg-logo">
        
        <path d="M2.31617 31.0695V33.8749C1.61289 33.8749 0.953023 33.8878 0.294604 33.8605C0.19765 33.8562 0.0616245 33.6663 0.0268948 33.5397C-0.0208587 33.367 0.00952985 33.1743 0.00952985 32.9901C0.00952985 22.2706 0.00952985 11.5525 0.00952985 0.83304V0.0273872H2.27999V18.6596C5.27543 15.811 8.582 14.8831 12.3647 16.1361C14.3978 16.8094 15.9462 18.133 17.0937 19.9241C19.3121 23.3885 18.7983 28.1792 15.9013 31.094C14.7002 32.3024 13.2893 33.1541 11.6353 33.5872C9.98277 34.0202 8.32587 34.0001 6.68344 33.5354C5.04824 33.0736 3.66339 32.1773 2.47679 30.9558C2.42325 30.9932 2.36971 31.0321 2.31617 31.0695ZM9.32724 17.8971C5.51275 17.8611 2.37405 20.8967 2.32196 24.6746C2.26986 28.4367 5.4404 31.6147 9.252 31.6191C12.9985 31.6234 16.1184 28.5806 16.1545 24.889C16.1922 21.006 13.1938 17.9345 9.32869 17.8971H9.32724Z"></path>
        <path d="M23.1528 18.4523C24.1962 17.7603 25.0789 17.0396 26.0745 16.536C31.7788 13.6472 38.9071 17.6596 39.2414 23.9998C39.4049 27.1045 39.2892 30.2235 39.3123 33.3353C39.3152 33.7597 39.1416 33.8791 38.7335 33.895C37.0173 33.9626 37.0259 33.9741 37.0158 32.2621C36.9999 29.5185 37.0882 26.7693 36.9188 24.0358C36.7003 20.5154 33.5819 17.8524 29.9859 17.8941C26.4102 17.9358 23.3742 20.6938 23.2194 24.2271C23.0935 27.1045 23.176 29.9904 23.1673 32.8721C23.1654 33.5492 22.8292 33.8878 22.1587 33.8878C21.7665 33.8878 21.3744 33.8878 20.9258 33.8878V0.0129395H23.1514V18.4538L23.1528 18.4523Z"></path>
        <path d="M53.8137 0H56.0537V15.5779H62.8926V17.8668H56.2433C56.1565 17.9934 56.1087 18.0294 56.1087 18.0653C56.142 20.7341 55.9568 23.4301 56.2751 26.0672C56.6398 29.0898 59.1866 31.2032 62.2515 31.5557C62.457 31.5787 62.6596 31.6204 62.8998 31.6593V34.0014C61.8652 33.7914 60.8739 33.6907 59.9521 33.3843C56.3171 32.1715 53.7934 28.733 53.7789 24.9278C53.7485 16.8137 53.7673 8.69962 53.7688 0.586976C53.7688 0.408581 53.7963 0.228748 53.8137 0.00287733V0Z"></path>
        <path d="M50.7994 17.8884C48.9732 17.8884 47.2136 17.8884 45.4539 17.8884C44.4738 17.8884 43.9837 18.3703 43.9837 19.3343C43.9837 23.8747 43.9837 28.4151 43.9837 32.9555V33.8288H41.7075C41.6944 33.5555 41.6756 33.331 41.6756 33.1052C41.6756 25.2227 41.6655 17.3403 41.6785 9.45781C41.6858 4.9332 44.6928 1.23439 49.076 0.32228C49.6143 0.210064 50.17 0.174097 50.7879 0.0949707V2.26016C49.8256 2.54214 48.8502 2.70327 47.9878 3.1061C45.506 4.26279 44.1603 6.28124 44.0184 8.98449C43.9114 11.0073 44.0011 13.0401 43.975 15.0672C43.9678 15.5822 44.2427 15.6067 44.632 15.6038C46.4191 15.5952 48.2077 15.5995 49.9949 15.5995C50.2452 15.5995 50.4955 15.5995 50.798 15.5995V17.887L50.7994 17.8884Z"></path>
    </g></defs><use xlink:href="#svg-logo" fill="#005234"></use></svg>